<?xml version="1.0" standalone="no"?>
<!DOCTYPE svg PUBLIC "-//W3C//DTD SVG 20010904//EN"
 "http://www.w3.org/TR/2001/REC-SVG-20010904/DTD/svg10.dtd">
<svg version="1.0" xmlns="http://www.w3.org/2000/svg"
 width="626.000000pt" height="626.000000pt" viewBox="0 0 626.000000 626.000000"
 preserveAspectRatio="xMidYMid meet">
<g transform="translate(0.000000,626.000000) scale(0.100000,-0.100000)"
fill="#000000" stroke="none">
<path d="M3020 6244 c-96 -26 -155 -60 -224 -127 -73 -72 -119 -155 -136 -248
-7 -37 -9 -486 -7 -1325 2 -1163 4 -1273 19 -1317 82 -230 297 -363 531 -327
186 28 337 162 388 345 12 42 14 267 14 1335 0 1219 -1 1288 -18 1342 -76 238
-335 384 -567 322z"/>
<path d="M1373 5620 c-75 -16 -126 -45 -228 -131 -566 -476 -934 -1124 -1060
-1869 -22 -128 -28 -199 -32 -405 -10 -462 46 -789 211 -1226 76 -202 181
-392 387 -696 40 -60 201 -244 293 -337 450 -452 1029 -755 1648 -862 227 -39
351 -47 623 -41 217 5 273 9 421 35 655 114 1214 402 1674 862 94 94 257 280
299 343 281 416 398 658 502 1046 76 282 104 535 96 876 -4 206 -10 277 -32
405 -81 478 -253 900 -526 1290 -136 194 -345 421 -519 566 -115 95 -140 112
-206 134 -240 83 -494 -123 -464 -375 14 -115 56 -184 169 -277 246 -203 469
-485 617 -778 236 -469 303 -1007 193 -1549 -24 -120 -93 -335 -138 -435 -17
-36 -31 -68 -31 -71 0 -6 -108 -203 -139 -253 -46 -75 -194 -267 -269 -350
-71 -77 -222 -216 -289 -264 -190 -136 -340 -225 -493 -292 -199 -88 -466
-159 -695 -185 -116 -14 -394 -14 -510 0 -224 26 -509 101 -679 178 -36 17
-69 31 -71 31 -10 0 -214 115 -280 158 -270 176 -524 430 -697 697 -252 391
-378 817 -378 1283 0 303 52 580 165 876 84 222 275 529 434 699 30 32 60 65
67 75 7 9 58 58 115 107 216 188 254 250 250 403 -4 126 -102 268 -215 311
-64 24 -156 33 -213 21z"/>
</g>
</svg>
