<?xml version="1.0" encoding="UTF-8" standalone="no"?>
<svg
   xmlns:dc="http://purl.org/dc/elements/1.1/"
   xmlns:cc="http://creativecommons.org/ns#"
   xmlns:rdf="http://www.w3.org/1999/02/22-rdf-syntax-ns#"
   xmlns:svg="http://www.w3.org/2000/svg"
   xmlns="http://www.w3.org/2000/svg"
   xmlns:sodipodi="http://sodipodi.sourceforge.net/DTD/sodipodi-0.dtd"
   xmlns:inkscape="http://www.inkscape.org/namespaces/inkscape"
   width="500"
   height="500"
   viewBox="0 0 132.29166 132.29167"
   version="1.1"
   id="svg8"
   inkscape:export-filename="C:\Users\Travail\path955.png"
   inkscape:export-xdpi="96"
   inkscape:export-ydpi="96"
   inkscape:version="1.0.2-2 (e86c870879, 2021-01-15)"
   sodipodi:docname="dessin.svg">
  <defs
     id="defs2">
    <rect
       x="7.9375"
       y="10.583333"
       width="112.25893"
       height="33.639881"
       id="rect859" />
    <rect
       x="14.174107"
       y="56.507441"
       width="109.04613"
       height="25.891369"
       id="rect853" />
    <rect
       x="10.016369"
       y="57.452381"
       width="109.04613"
       height="38.931547"
       id="rect847" />
    <rect
       x="8.8824405"
       y="90.525298"
       width="106.21131"
       height="26.83631"
       id="rect841" />
    <rect
       x="14.93006"
       y="31.561012"
       width="111.31399"
       height="41.766369"
       id="rect835" />
  </defs>
  <sodipodi:namedview
     id="base"
     pagecolor="#ffffff"
     bordercolor="#666666"
     borderopacity="1.0"
     inkscape:pageopacity="0.0"
     inkscape:pageshadow="2"
     inkscape:zoom="1.1298099"
     inkscape:cx="396.29509"
     inkscape:cy="283.74761"
     inkscape:document-units="px"
     inkscape:current-layer="layer1"
     inkscape:document-rotation="0"
     showgrid="false"
     units="px"
     showguides="true"
     inkscape:guide-bbox="true"
     inkscape:lockguides="false"
     inkscape:window-width="1536"
     inkscape:window-height="801"
     inkscape:window-x="-8"
     inkscape:window-y="-8"
     inkscape:window-maximized="1">
    <sodipodi:guide
       position="66.14583,53.924358"
       orientation="1,0"
       id="guide869" />
    <sodipodi:guide
       position="37.635944,66.145835"
       orientation="0,-1"
       id="guide871" />
    <sodipodi:guide
       position="23.48177,87.907815"
       orientation="0,-1"
       id="guide895" />
    <sodipodi:guide
       position="24.936978,44.714585"
       orientation="0,-1"
       id="guide897" />
    <sodipodi:guide
       position="78.260852,129.93316"
       orientation="0,-1"
       id="guide905" />
    <sodipodi:guide
       position="78.015906,2.3585124"
       orientation="0,-1"
       id="guide907" />
    <sodipodi:guide
       position="127.26251,44.363185"
       orientation="1,0"
       id="guide909" />
    <sodipodi:guide
       position="5.0291501,44.529583"
       orientation="1,0"
       id="guide911" />
  </sodipodi:namedview>
  <metadata
     id="metadata5">
    <rdf:RDF>
      <cc:Work
         rdf:about="">
        <dc:format>image/svg+xml</dc:format>
        <dc:type
           rdf:resource="http://purl.org/dc/dcmitype/StillImage" />
        <dc:title />
      </cc:Work>
    </rdf:RDF>
  </metadata>
  <g
     inkscape:label="Calque 1"
     inkscape:groupmode="layer"
     id="layer1">
    <path
       style="fill:#fff0f6;fill-opacity:1;stroke:none;stroke-width:0.264583px;stroke-linecap:butt;stroke-linejoin:miter;stroke-opacity:1"
       d="M 2.0685226,78.611437 C 2.8764405,75.460009 -0.19548113,75.953073 1.7618603,68.548117 4.7314551,57.313634 0.79287999,63.344176 0.96967509,55.814582 1.2322368,44.63224 5.0291501,40.966147 3.826967,37.52457 2.2283801,32.94818 5.0291501,21.270271 6.9801941,18.324124 11.232801,11.902534 15.833469,6.4771221 22.957319,10.80793 28.841305,14.384987 29.58638,2.3585053 40.977151,6.5402067 43.605799,7.5052178 48.849122,-1.019879 55.048378,0.66966209 61.245071,2.358505 68.72376,2.059754 74.162085,0.76404654 82.620684,-1.2512561 82.798863,3.7246476 91.221313,3.4944135 96.790437,3.3421772 104.72312,-1.302046 108.44684,1.0693232 c 4.49464,2.8623157 1.72614,7.7111939 7.24839,10.2984398 1.84874,0.866161 5.22267,1.481774 9.1193,5.757405 3.128,3.432246 -2.36479,6.249931 -1.73709,11.489397 0.62771,5.239466 9.42279,4.758599 8.50537,11.179188 -0.45872,3.210295 -2.4348,7.98036 -4.47878,13.114236 -1.96578,4.937427 6.89744,0.406191 4.51117,7.141641 -5.41057,15.271753 -4.18244,9.374015 -0.40024,19.413391 2.48991,6.609161 -3.95245,8.465459 0.15775,11.33549 2.75392,1.922983 -7.41203,9.381279 -2.44441,11.444729 3.63333,1.50921 -0.7725,7.08535 -3.86078,12.74011 -1.73855,3.18335 1.42649,9.1001 -2.01461,11.31878 -5.6316,3.63102 -6.621,-0.58514 -13.25038,-1.11096 -1.99471,-0.15821 -7.41503,0.80829 -9.944322,2.66598 -5.145574,3.77929 -15.256233,4.18954 -18.765433,3.48493 -3.615046,-0.72586 -8.472962,-0.59674 -11.891066,-0.93044 -2.450644,-0.23924 -23.891832,2.5466 -28.318228,-0.21092 -4.513208,-2.81159 -7.390048,-4.78807 -11.983898,-4.69578 -6.015149,0.12083 -15.080266,1.63417 -16.81813,0.61485 -4.4645316,-2.61862 0.981462,-9.1112 0.236454,-10.83552 -0.481392,-1.11418 -6.8815535,-4.4196 -8.8804301,-8.03367 -1.9988766,-3.61406 2.5395067,-6.23306 2.5395067,-10.880785 0,-0.625021 -3.4350602,-4.390004 -4.7265908,-8.586857 -0.61548977,-2.000046 0.055913,-6.198357 0.8181298,-9.171521 z"
       id="path957"
       sodipodi:nodetypes="ssssssssssssssssssssssssssssssssss"
       inkscape:export-xdpi="96"
       inkscape:export-ydpi="96" />
    <text
       xml:space="preserve"
       id="text857"
       style="font-style:normal;font-variant:normal;font-weight:normal;font-stretch:normal;font-size:10.5833px;line-height:1.25;font-family:'Edwardian Script ITC';-inkscape-font-specification:'Edwardian Script ITC';white-space:pre;shape-inside:url(#rect859);fill:#dbca6a;fill-opacity:1;"
       transform="matrix(2.0953858,0,0,2.0953858,-4.5919863,30.328274)"><tspan
         x="7.9375"
         y="19.539169"><tspan>L .V   Beauty</tspan></tspan></text>
    <path
       sodipodi:type="star"
       style="fill:#ffaaaa;fill-opacity:0;stroke:#dbca6a;stroke-width:0.459999;stroke-miterlimit:4;stroke-dasharray:none;stroke-opacity:1"
       id="path873"
       sodipodi:sides="6"
       sodipodi:cx="66.145828"
       sodipodi:cy="66.145828"
       sodipodi:r1="64.595573"
       sodipodi:r2="55.94141"
       sodipodi:arg1="-1.7529762"
       sodipodi:arg2="-1.2293775"
       inkscape:flatsided="true"
       inkscape:rounded="0"
       inkscape:randomized="0"
       d="M 54.442803,2.6192409 115.30995,24.247417 127.01298,87.774004 77.848854,129.67242 16.981703,108.04424 5.278677,44.517652 Z" />
    <path
       sodipodi:type="star"
       style="fill:#ffaaaa;fill-opacity:0;stroke:#dbca6a;stroke-width:0.459999;stroke-miterlimit:4;stroke-dasharray:none;stroke-opacity:1"
       id="path873-1"
       sodipodi:sides="6"
       sodipodi:cx="-66.145828"
       sodipodi:cy="66.145828"
       sodipodi:r1="64.595573"
       sodipodi:r2="55.94141"
       sodipodi:arg1="-1.7529762"
       sodipodi:arg2="-1.2293775"
       inkscape:flatsided="true"
       inkscape:rounded="0"
       inkscape:randomized="0"
       d="M -77.848854,2.6192409 -16.981703,24.247417 -5.278677,87.774004 -54.442803,129.67242 -115.30995,108.04424 -127.01298,44.517652 Z"
       transform="scale(-1,1)" />
  </g>
</svg>
